<?xml version="1.0" encoding="UTF-8"?>
<svg id="_x2014_ÎÓÈ_x5F_1" xmlns="http://www.w3.org/2000/svg" version="1.1" viewBox="5 5 1500 1500">
  <defs>
    <style>
      .st0 {
        fill: white;
      }

      .st1 {
        fill: black;
      }
    </style>
  </defs>
  <g>
    <circle class="st0" cx="750" cy="750" r="598.28"/>
    <path d="M750,1355.78c-334.03,0-605.78-271.75-605.78-605.78S415.97,144.22,750,144.22s605.78,271.75,605.78,605.78-271.75,605.78-605.78,605.78ZM750,159.22c-325.76,0-590.78,265.02-590.78,590.78s265.02,590.78,590.78,590.78,590.78-265.02,590.78-590.78S1075.76,159.22,750,159.22Z"/>
  </g>
  <g>
    <g>
      <path class="st1" d="M1194.61,532.88c35.89,26.8,18.39,91.29,52.61,120.19,14.83,12.53,38.33,17.23,44.54,35.62,1.93,5.72,2.42,12.98,7.8,15.72,9.68,4.94,16.18-10.14,23.42-18.24,5.31-5.93,13.11-8.47,20.6-11.53-23.84-189.7-136.49-351.76-295.01-443.22-13.15,12.86-20.86,28.36-37.14,39.05-14.99,9.84-36.18,13.71-43.75,32.06,2.26,19.89,45.44,1.83,50.05,21.31,1.89,7.99-5.98,15.04-13.74,17.74-7.76,2.7-16.55,3.39-22.9,8.59-5.54,4.53-8.58,12.06-15.09,15.04-10.34,4.74-21.58-4.91-27.25-14.77-5.67-9.86-10.38-21.82-20.99-25.92-12.44-4.8-26.78,6.36-28.27,18.96-1.95,16.6,15.82,15.43,20.64,27.51,1.44,3.61.24,7.84,1.58,11.49,2.86,7.74,14.43,7.85,19.45,14.4,3.3,4.3,2.95,10.37,1.55,15.61-1.4,5.24-3.7,10.33-3.82,15.75-.11,4.99,1.6,10.24-.4,14.81-1.71,3.92-5.87,6.34-10.08,7.09-13.89,2.5-30.48-4.86-42.35,6-5.6,5.12-7.6,13-8.9,20.47-3.74,21.59,7.5,32.65,11.04,52.34,3.81,21.18-14.67,30.09-27.87,40.93-13.6,11.16-25.63,25.07-29.03,42.82-3.89,20.34,4.01,43.32-6.77,61-4.09,6.71-10.55,11.87-13.88,19-7.9,16.93,4.6,35.91,16.41,50.39,16.34,20.03,34.25,41.12,59.11,48.21,10.05,2.87,20.61,3.22,31.05,3.56,23.2.75,46.4,1.49,69.6,2.24,3.77.12,7.76.31,10.88,2.42,10.5,7.1.45,22.9-.7,35.52-2.46,27.04,37.7,36.52,49.38,61.03,12.75,26.76-13.14,55.62-16.63,85.06-5.08,42.83,37.64,77.99,40.57,121.01.61,8.9,1.4,20.63,10.09,22.66,2.88.67,5.88-.08,8.74-.84,22.08-5.82,47.21-14.25,55.33-35.59,5.52-14.51,4.14-35.36,18.85-40.29,4.18-1.4,8.85-.95,12.95-2.56,7.85-3.08,10.99-12.18,14.92-19.64,11.33-21.5,34.25-33.72,52.58-49.68s33.19-42.44,21.56-63.78c-4.46-8.19-12.49-14.75-13.96-23.95-1.02-6.39,1.39-12.81,4.31-18.58,23.12-45.54,80.39-72.54,87.52-123.11.67-4.78.57-10.34-3.03-13.55-3.03-2.7-7.5-2.8-11.56-2.75-19.12.23-38.24.45-57.37.68-26.76-39.82-54.01-80.7-65.57-127.26-4.02-16.19-6.21-33.23-14.66-47.61-8.45-14.38-25.66-25.48-41.55-20.41-14.29,4.56-23.35,20.54-38.15,22.95-11.54,1.88-22.42-5.15-32.27-11.46-31.59-20.24-65.92-36.21-101.75-47.34-7.09-2.2-14.63-4.23-21.85-2.51-9.85,2.35-17.23,11.23-27.16,13.19-9.93,1.96-20.87-12.77-11.74-17.15,11.44-15.78,32.26-20.65,50.53-27.42,18.27-6.78,37.83-20.28,37.62-39.77,13.89-2.12,25.77,9.88,33.26,21.77,7.99,12.68,14.1,26.54,18.07,40.99,2.58,9.39,5.64,20.61,14.89,23.63,18.5-17.89-7.45-34.97-4.17-52.33.89-4.71,5.12-8.76,9.91-8.86,8.07-.17,12.96,13.14,15.73,19.17,2.89,6.3,5.26,13.19,10.47,17.77,5.37,4.72,14.07,6,20.63,3.07,9.02-4.04,7.83-12.1,13.99-18.74,13-14,61.29,19.85,75.43,26.72,3.15,1.53,6.44,3.17,8.48,6.02,7.13,9.95-5.81,21.89-16.8,27.29Z"/>
      <path d="M1072.81,1132.57c-1.32,0-2.69-.13-4.09-.46-14.08-3.29-15.2-19.67-15.86-29.45-1.24-18.13-10.27-34.93-19.83-52.72-11.67-21.71-23.74-44.17-20.71-69.69,1.43-12.03,6.11-23.56,10.64-34.7,7.09-17.44,13.22-32.5,6.67-46.24-4.17-8.74-13.5-15.88-22.53-22.79-13.76-10.52-29.34-22.44-27.55-42.15.42-4.57,1.72-9.13,2.97-13.55,2.6-9.13,3.37-13.47.99-15.08-1.42-.96-4.47-1.06-6.92-1.14l-69.59-2.24c-10.75-.34-21.87-.7-32.87-3.84-28.03-8-47.34-31.66-62.86-50.68-12.18-14.93-27.24-37.22-17.4-58.3,2.31-4.94,5.57-8.79,8.73-12.52,2.09-2.47,4.06-4.79,5.54-7.21,5.44-8.92,5.07-20.37,4.69-32.49-.27-8.52-.55-17.32,1.12-26.02,3.25-16.95,13.59-32.39,31.63-47.21,2.36-1.94,4.85-3.8,7.27-5.6,12.6-9.4,20.21-15.79,17.98-28.21-1.17-6.52-3.27-11.98-5.5-17.76-4.07-10.56-8.27-21.48-5.55-37.19,1.47-8.5,3.96-18.08,11.22-24.72,10.07-9.2,22.56-8.4,32.61-7.75,4.88.32,9.51.61,13.48-.1,2.14-.39,4-1.5,4.53-2.71.56-1.27.33-3.61.09-6.08-.17-1.78-.37-3.8-.32-5.89.11-4.91,1.53-9.35,2.79-13.27.45-1.41.91-2.82,1.29-4.24,1.1-4.14,1.01-7.46-.26-9.11-1.12-1.46-3.86-2.72-6.5-3.94-5.07-2.33-11.37-5.24-14.02-12.42-1.09-2.96-1.16-5.79-1.21-8.06-.03-1.24-.06-2.65-.3-3.24-1.06-2.65-3.52-4.34-7.45-6.88-6.12-3.95-15.36-9.93-13.67-24.29,1.05-8.91,6.83-17.54,15.08-22.52,7.43-4.48,15.93-5.41,23.33-2.55,11.38,4.4,17.04,14.9,22.03,24.17.91,1.69,1.82,3.38,2.75,5,3.74,6.49,11.67,14.42,17.62,11.69,2.2-1.01,4.14-3.47,6.38-6.33,1.96-2.5,4.19-5.33,7.08-7.7,5.68-4.65,12.45-6.4,18.43-7.94,2.4-.62,4.66-1.2,6.76-1.93,4.81-1.67,9.64-5.85,8.91-8.93-.91-3.82-8.3-4.37-18.65-4.73-12.53-.44-29.69-1.03-31.56-17.47-.14-1.26.04-2.53.52-3.7,6.4-15.53,20.48-22.27,32.89-28.2,4.95-2.37,9.63-4.61,13.68-7.27,9.13-5.99,15.4-13.84,22.05-22.14,4.26-5.32,8.66-10.82,13.97-16,2.4-2.35,6.08-2.81,8.99-1.13,79.7,45.99,149.03,110.68,200.49,187.08,52.55,78.02,86.51,168.51,98.22,261.71.42,3.36-1.46,6.59-4.6,7.88-1,.41-2,.81-3.01,1.21-5.87,2.33-11.41,4.54-14.85,8.38-1.52,1.7-3.1,3.9-4.78,6.24-5.46,7.6-14.62,20.32-27.64,13.68-7.11-3.63-9.04-10.97-10.44-16.33-.33-1.25-.65-2.5-1.05-3.68-3.09-9.15-12.45-14.26-23.29-20.19-6.48-3.55-13.19-7.21-18.98-12.11-18.84-15.91-23.48-40.37-27.98-64.01-4.3-22.63-8.36-44.02-24.28-55.9-2.09-1.56-3.22-4.1-2.98-6.7.24-2.6,1.82-4.89,4.17-6.04,7.24-3.55,13.48-9.34,14.52-13.48.27-1.07.13-1.81-.51-2.71-.98-1.37-3.47-2.58-5.65-3.64-3.15-1.53-7.42-4.04-12.83-7.21-9.6-5.63-22.75-13.34-34.22-18-12.91-5.25-18.39-4.45-19.6-3.15-1.62,1.74-2.55,3.83-3.64,6.25-2.01,4.49-4.76,10.63-12.79,14.23-9.27,4.15-21.05,2.39-28.64-4.28-5.6-4.92-8.45-11.45-10.98-17.22-.45-1.03-.9-2.05-1.36-3.06-.3-.66-.63-1.41-.99-2.22-4.33-9.85-6.65-12.28-7.83-12.59-.91.03-2.35,1.3-2.63,2.76-.84,4.45,1.84,10.01,4.67,15.9,5.24,10.91,12.43,25.85-2.65,40.43-2,1.93-4.9,2.59-7.54,1.74-13.06-4.26-16.94-18.37-19.77-28.67-3.82-13.88-9.6-27-17.21-39.08-3.22-5.12-10.91-15.79-20.2-18.07-3.51,16.24-18.53,30.51-41.72,39.11-3.06,1.13-6.19,2.22-9.33,3.3-15.21,5.25-29.57,10.22-37.73,21.49-.45.62-1,1.17-1.61,1.63.43.74,1.2,1.73,2.35,2.57,1.26.92,2.59,1.37,3.47,1.2,3.71-.73,7.43-3.11,11.37-5.63,4.44-2.84,9.48-6.06,15.51-7.5,9.05-2.15,17.71.13,25.81,2.64,36.52,11.34,71.37,27.56,103.57,48.19,9.14,5.85,18.4,11.77,27.01,10.37,5.95-.97,11.33-5.43,17.02-10.15,5.93-4.92,12.06-10,20.05-12.55,20.1-6.41,40.51,7.1,50.29,23.76,7.13,12.14,10.1,25.63,12.97,38.68.8,3.66,1.61,7.32,2.5,10.93,11.05,44.52,36.84,83.7,62.25,121.52l53.31-.63c4.19-.04,11.26-.14,16.63,4.65,4.9,4.37,6.75,11.16,5.47,20.2-4.5,31.95-27.13,54.86-49.01,77-14.82,15-30.14,30.51-39.25,48.45-3.07,6.05-4.18,10.36-3.59,14,.65,4.06,3.51,7.85,6.82,12.23,2.19,2.9,4.45,5.89,6.32,9.32,13.49,24.75-1.95,54.51-23.22,73.03-5.42,4.72-11.22,9.11-16.83,13.36-13.74,10.42-26.72,20.26-34.04,34.15-.64,1.22-1.27,2.49-1.89,3.77-3.44,7.02-7.71,15.74-16.92,19.35-3.06,1.2-6.03,1.55-8.65,1.86-1.75.21-3.41.41-4.66.82-5.85,1.96-7.76,9.13-10.2,20.69-1.07,5.06-2.18,10.3-4.03,15.16-9.02,23.7-34.37,33.32-60.43,40.18-2.26.6-5.11,1.35-8.26,1.35ZM894.91,457.49c-5.41,0-10.1.82-13.79,4.19-3.92,3.59-5.47,9.91-6.57,16.21-2.01,11.63.98,19.4,4.77,29.24,2.27,5.89,4.84,12.57,6.27,20.5,3.98,22.17-11.41,33.65-23.77,42.88-2.38,1.78-4.63,3.46-6.72,5.17-15.22,12.5-23.86,25.07-26.42,38.43-1.35,7.06-1.11,14.67-.86,22.72.44,13.78.89,28.04-6.87,40.77-2.08,3.42-4.53,6.31-6.91,9.11-2.63,3.11-5.12,6.04-6.58,9.16-6.27,13.44,5.8,30.68,15.42,42.48,17.43,21.35,33.62,39.53,55.36,45.74,9.22,2.63,19.39,2.96,29.24,3.27l69.6,2.24c4.15.13,9.83.32,14.84,3.71,11.78,7.96,7.88,21.64,5.03,31.62-1.12,3.92-2.17,7.62-2.46,10.79-.97,10.7,7.56,18.05,21.72,28.88,10.44,7.98,21.24,16.24,26.96,28.25,9.4,19.72,1.41,39.36-6.31,58.35-4.16,10.22-8.46,20.79-9.64,30.82-2.47,20.83,7.97,40.26,19.03,60.83,9.89,18.41,20.12,37.44,21.58,58.8.36,5.28,1.03,15.1,4.32,15.87,1.14.26,3.34-.32,5.12-.79,22.19-5.84,43.63-13.64,50.23-31.01,1.44-3.77,2.37-8.21,3.37-12.92,2.54-12.02,5.7-26.98,20.11-31.81,2.71-.91,5.33-1.22,7.65-1.5,1.9-.23,3.69-.44,4.95-.94,3.78-1.48,6.28-6.58,8.92-11.99.69-1.41,1.38-2.81,2.09-4.16,8.87-16.84,23.81-28.16,38.25-39.11,5.41-4.1,11-8.34,16.04-12.73,16.21-14.11,29.36-37.19,19.9-54.53-1.34-2.45-3.17-4.89-5.12-7.46-3.95-5.23-8.43-11.15-9.67-18.9-1.45-9.03,2.18-17.54,5.03-23.16,10.16-20.02,26.32-36.38,41.95-52.2,21.09-21.35,41.02-41.52,44.83-68.56.63-4.47-.08-6.44-.59-6.9-1.03-.91-4.86-.87-6.48-.85l-57.37.68c-2.65-.06-4.9-1.22-6.31-3.32-25.59-38.08-54.61-81.24-66.62-129.64-.93-3.74-1.76-7.53-2.6-11.32-2.74-12.45-5.32-24.21-11.25-34.3-6.6-11.24-20.37-21.04-32.8-17.07-5.22,1.66-9.99,5.62-15.04,9.8-6.66,5.52-14.21,11.78-24.18,13.4-14.32,2.34-27.07-5.85-37.33-12.42-31.26-20.03-64.88-35.68-100.12-46.62-6.12-1.9-12.53-3.66-17.89-2.38-3.56.85-7.13,3.13-10.9,5.54-4.71,3.01-10.05,6.43-16.54,7.71-10.43,2.05-20.41-5.83-23.29-14.46-2.08-6.26-.08-12.35,5-15.76,10.97-14.14,27.75-19.94,44-25.55,3.04-1.05,6.06-2.1,9.02-3.19,7.73-2.87,32.94-13.69,32.73-32.65-.04-3.74,2.67-6.93,6.37-7.49,14.58-2.24,29.1,6.71,40.73,25.19,8.4,13.33,14.77,27.79,18.95,42.99,1.55,5.64,3.23,11.75,6.03,15.43,2.05-4.65.16-9.65-4.02-18.35-3.58-7.45-7.64-15.89-5.89-25.18,1.58-8.36,8.94-14.8,17.12-14.97.11,0,.22,0,.33,0,12.01,0,17.92,13.47,21.47,21.55.32.73.62,1.41.89,2.01.5,1.09.98,2.19,1.46,3.29,2.08,4.76,4.05,9.25,7.14,11.97,3.17,2.79,8.72,3.6,12.61,1.86,2.67-1.2,3.43-2.65,5.23-6.67,1.35-3.01,3.03-6.77,6.34-10.33,14.46-15.56,47.95,4.08,72.4,18.42,4.93,2.89,9.18,5.38,11.8,6.66,3.42,1.66,8.1,3.93,11.3,8.4,3.23,4.5,4.22,9.73,2.86,15.1-1.75,6.96-7.2,13.09-13.37,17.71,14.05,15.42,18.15,36.99,22.13,57.95,4.19,22.04,8.14,42.87,22.92,55.35,4.64,3.92,10.4,7.07,16.5,10.4,11.88,6.49,25.34,13.85,30.3,28.55.5,1.49.93,3.08,1.34,4.67.69,2.61,1.63,6.19,2.75,6.77.27.14.39.15.39.15,1.83-.29,6.17-6.33,8.25-9.23,1.83-2.55,3.73-5.19,5.78-7.48,5.11-5.71,11.78-8.8,18-11.33-24.15-177.77-130.39-337.38-285.51-428.98-3.05,3.36-5.87,6.89-8.81,10.56-7.09,8.85-14.41,18-25.53,25.3-4.9,3.22-10.26,5.78-15.44,8.26-10.07,4.82-19.62,9.39-24.36,18.03,1.74,1.94,7.11,2.49,16.56,2.82,12.29.43,29.12,1.01,32.73,16.26,2.89,12.18-7.16,22.58-18.57,26.55-2.68.93-5.36,1.62-7.95,2.29-4.91,1.27-9.55,2.46-12.67,5.02-1.62,1.33-3.16,3.29-4.79,5.36-3.01,3.83-6.42,8.17-11.93,10.7-14.47,6.63-29.26-4.61-36.87-17.85-1-1.74-1.98-3.55-2.96-5.37-4.12-7.66-8.02-14.89-14.23-17.29-4.16-1.61-8.17.19-10.18,1.4-4.31,2.6-7.42,7.09-7.94,11.43-.57,4.86,1.08,6.16,6.92,9.93,4.61,2.98,10.36,6.69,13.24,13.92,1.24,3.09,1.31,6.06,1.36,8.44.03,1.28.06,2.61.29,3.23.5,1.35,3.41,2.69,6.23,3.99,3.9,1.8,8.76,4.03,12.13,8.44,4.25,5.54,5.23,13.18,2.84,22.11-.44,1.65-.96,3.3-1.49,4.94-1.04,3.24-2.02,6.3-2.08,9.04-.03,1.2.11,2.62.25,4.11.37,3.87.84,8.68-1.27,13.52-2.57,5.89-8.41,10.18-15.63,11.48-5.77,1.04-11.53.67-17.1.3-2.7-.17-5.28-.34-7.72-.34Z"/>
    </g>
    <g>
      <path class="st1" d="M330.57,924.73c2.22,14.65,15.4,24.74,27.51,33.27,25.61,18.02,51.39,36.48,71.56,60.43,20.17,23.95,34.45,54.34,32.98,85.62-.83,17.75-6.62,34.89-8.76,52.53-2.15,17.64.09,37.29,12.59,49.92,7.15,7.22,16.8,11.29,25.49,16.55,20.46,12.39,35.82,31.57,54.63,46.33,17.36,13.61,47.22,28.03,67.83,13.96-6.46-14.49-28.86-19.82-42.27-28.2-23.29-14.55-42.29-34.45-52.83-60.15-2.78-6.78-4.98-14.02-4.39-21.32,1.1-13.5,11.28-24.24,20.69-33.98,23.43-24.26,46.45-51.21,53.83-84.13,3.75-16.74,8.4-39.51,25.55-39.81,4.48-.08,8.92,1.7,13.37,1.11,20.54-2.72,20.88-43.57,21.93-59,1.77-25.91-6.22-47.92-27.37-64.53-22.69-17.83-51.44-25.94-76.1-40.94-20.46-12.45-37.98-29.7-50.74-49.96-13.51-21.44-21.95-46.98-39.79-65.48-20.67-21.43-47.89-20.19-75.55-16.45-11.21,1.52-22.86,3.2-32.23,9.54-7.25,4.91-12.61,13.5-12.6,21.95-6.68-19.59-34.51-30.58-51.86-17.96-6.42-8.17-5.66-19.75-3.75-29.97,1.91-10.21,4.65-20.94,1.23-30.75-3.42-9.81-16.24-17.01-24.47-10.66,4.73-17.74,12.6-34.64,23.16-49.67-23.7-8.1-43.47,34.8-66.67,25.36-14.31-5.83-14.15-26.83-6.82-40.43,10.33-19.16,30.08-32.93,51.63-36,17.1-2.43,34.4,1.53,51.22,5.46,17.33,4.05,39.29,15.03,35.08,32.32,5.56-.18,11.12-.36,16.68-.54.61-26.46,1.66-54.41,15.84-76.76,25.89-40.8,84.16-47.04,118.05-81.49,9.01-9.15,16.22-20.26,26.81-27.52,10.59-7.27,26.47-9.38,35.4-.15,4.63,4.79,6.59,11.78,11.54,16.24,13.85,12.47,36.56-6.7,35.85-25.32-.71-18.62-13.77-34.08-22.04-50.78-7-14.13-10.75-29.79-18.77-43.37s-22.2-25.34-37.9-23.87c-18.51,1.74-30.1,19.89-42.43,33.8-12.85,14.51-31.77,26.49-50.7,22.32s-30.65-31.75-15.62-43.99c9.41-7.67,23.07-5.63,35.06-7.55,34.16-5.45,52.91-42.37,81.96-61.15,8.15-5.27,19.99-8.68,26.76-1.72,10.46,10.76-4.37,31.13,4.59,43.17,6.23,8.38,19.07,6.46,29.13,3.68,9.54-2.64,19.71-5.67,26-13.31,11.24-13.66,3.76-35.8-10.66-46.06-14.41-10.25-33.05-11.86-50.7-13.12,6-6.33,11.74-15.54,13.19-23.78-223.8,69.33-391.37,266.49-417.44,506.15,22.98-4.17,40.86-3.83,55.5,17.54,8.43,12.32,13.65,26.83,23.57,37.99,13.05,14.68,32.49,21.69,51.18,27.74,11.49,3.72,23.38,7.49,32.49,15.42,38.45,33.52-41.3,55.8-17.18,92.14,6.97,10.49,22.57,13.58,27.59,25.13,3.24,7.47.91,16.13,2.13,24.19Z"/>
      <path d="M594.54,1296.67c-18.18,0-37.63-9.67-52.58-21.4-7.77-6.1-14.96-12.91-21.91-19.49-10.47-9.92-20.36-19.29-31.98-26.32-2.31-1.4-4.69-2.71-7.07-4.02-6.85-3.77-13.92-7.67-19.87-13.67-12.37-12.5-17.59-32.42-14.71-56.11.95-7.81,2.58-15.48,4.15-22.91,2.12-10,4.12-19.46,4.57-29.07,1.24-26.48-9.85-55.05-31.23-80.43-20.2-23.98-46.73-42.65-70.14-59.12-14.06-9.89-28-21-30.61-38.28h0c-.57-3.77-.5-7.37-.43-10.85.09-4.51.17-8.41-1.16-11.48-1.81-4.17-6.35-7.11-11.6-10.52-5.3-3.44-11.31-7.33-15.36-13.45-14.6-21.99,1.19-40.52,12.71-54.04,15.08-17.7,19.16-24.93,5.78-36.59-7.8-6.8-18.74-10.34-29.32-13.76l-.55-.18c-19.82-6.42-40.36-14.01-54.47-29.89-6.5-7.31-11.03-15.69-15.41-23.79-2.86-5.3-5.56-10.3-8.74-14.94-11.9-17.38-25.5-18.48-47.97-14.4-2.33.42-4.72-.28-6.45-1.89-1.73-1.61-2.6-3.95-2.34-6.3,26.09-239.87,192-441.04,422.67-512.5,2.49-.77,5.22-.19,7.18,1.54,1.96,1.73,2.88,4.35,2.43,6.93-.98,5.57-3.44,11.16-6.44,16.15,13.75,1.5,28.58,4.57,40.91,13.34,10.06,7.15,17.3,19.12,18.91,31.23,1.28,9.68-1.13,18.81-6.81,25.7-8.03,9.76-20.61,13.24-29.79,15.77-6.64,1.83-26.84,7.42-37.15-6.43-6.25-8.4-4.57-18.75-3.23-27.07,1.26-7.79,1.84-12.71-.72-15.35-3.29-3.39-11.2-1.16-17.31,2.79-10.27,6.64-19.6,16.14-28.62,25.32-16,16.3-32.54,33.15-56.23,36.93-3.83.61-7.68.85-11.4,1.08-7.86.49-15.28.95-20.11,4.88-4.95,4.04-4.35,10.28-3.55,13.65,1.99,8.36,8.74,15.6,16.05,17.2,20.01,4.4,38.34-14.17,43.48-19.97,2.07-2.33,4.11-4.79,6.18-7.26,10.67-12.8,22.76-27.3,41.17-29.03,20.1-1.91,36.48,12.97,45.07,27.52,4.89,8.28,8.24,17.14,11.48,25.7,2.41,6.38,4.69,12.4,7.55,18.16,2.19,4.43,4.74,8.76,7.44,13.35,7.27,12.38,14.8,25.17,15.38,40.47.52,13.58-8.82,28.37-21.71,34.4-9.64,4.52-19.37,3.35-26.66-3.22-3.5-3.16-5.72-6.97-7.67-10.34-1.39-2.4-2.71-4.67-4.25-6.26-5.95-6.15-18-4.2-25.77,1.12-6.15,4.22-11.2,10.12-16.54,16.37-2.91,3.4-5.91,6.91-9.17,10.23-15.92,16.18-36.57,26.32-56.53,36.12-24.3,11.93-47.24,23.2-60.53,44.13-13.48,21.23-14.11,48.69-14.67,72.91-.09,3.98-3.28,7.2-7.26,7.32l-16.68.54c-2.37.06-4.58-.95-6.06-2.77-1.48-1.82-2.02-4.23-1.46-6.5.67-2.75.27-5.2-1.27-7.7-3.9-6.34-14.98-12.44-28.23-15.54-15.99-3.74-32.53-7.6-48.46-5.34-19.22,2.73-36.88,15.05-46.09,32.13-3.97,7.36-5.13,16.97-2.83,23.38,1.17,3.27,3.1,5.42,5.88,6.55,7.13,2.91,14.56-2.34,25.95-11.33,11.58-9.14,24.7-19.5,40.31-14.17,2.23.76,3.98,2.53,4.71,4.78.73,2.24.36,4.7-.99,6.63-7.78,11.09-13.97,23.08-18.48,35.77.9.16,1.8.37,2.71.64,8.17,2.43,15.24,9.16,18.02,17.14,3.73,10.68,1.58,21.67-.31,31.37l-.62,3.23c-1.46,7.8-1.61,13.79-.42,18.32,8.27-3.3,17.89-3.54,27.43-.52,7.32,2.32,13.88,6.39,18.99,11.56,2.7-4.26,6.32-8.07,10.62-10.98,11.02-7.46,24.55-9.29,35.43-10.76,27.35-3.71,58.52-5.62,81.95,18.67,12.27,12.73,20.24,28.31,27.94,43.37,4.2,8.22,8.18,15.99,12.8,23.32,12.14,19.27,28.84,35.71,48.29,47.55,9.8,5.96,20.64,10.97,31.12,15.81,15.58,7.19,31.68,14.63,45.71,25.65,22.08,17.35,32.24,41.21,30.21,70.94-.09,1.32-.18,2.84-.27,4.5-1.14,20.31-3.25,58.12-28.16,61.42-3.6.47-6.83-.06-9.68-.53-1.67-.28-3.21-.52-4.55-.52-10,.17-14.11,14.91-18.08,32.69l-.28,1.26c-7.68,34.3-31.34,62.42-55.75,87.7-8.3,8.59-17.71,18.33-18.61,29.38-.51,6.26,1.79,12.83,3.85,17.86,9.33,22.73,26.1,41.79,49.86,56.63,3.67,2.29,8.29,4.42,13.17,6.68,12.34,5.7,26.33,12.16,31.98,24.83,1.48,3.31.38,7.2-2.62,9.25-7.36,5.03-15.59,7.15-24.11,7.15ZM337.99,923.61c1.73,11.43,13.01,20.23,24.41,28.26,24.16,17,51.53,36.26,72.98,61.73,23.82,28.28,36.16,60.53,34.74,90.8-.51,10.83-2.73,21.33-4.88,31.48-1.58,7.44-3.06,14.46-3.93,21.61-1.34,11.02-1.77,31.37,10.48,43.74,4.42,4.46,10.26,7.68,16.44,11.09,2.56,1.41,5.12,2.82,7.6,4.32,13,7.87,23.94,18.24,34.53,28.27,6.7,6.35,13.63,12.92,20.85,18.58,11.91,9.35,34.58,21.9,51.8,17-4.97-4.46-12.59-7.98-20.02-11.41-5.09-2.35-10.35-4.78-14.82-7.58-26.48-16.54-45.25-37.96-55.79-63.66-2.7-6.58-5.7-15.34-4.92-24.78,1.34-16.39,13.22-28.69,22.77-38.58,21.33-22.08,44.68-48.34,51.9-80.55l.28-1.25c3.92-17.53,9.84-44.03,32.46-44.42,2.69-.06,5.1.36,7.26.72,1.99.33,3.87.64,5.26.46,12.59-1.67,14.45-34.88,15.15-47.39.1-1.73.18-3.31.28-4.68,1.7-24.82-6.33-43.83-24.52-58.12-12.64-9.93-27.25-16.68-42.73-23.82-10.87-5.02-22.1-10.2-32.63-16.61-21.42-13.04-39.82-31.15-53.19-52.37-4.98-7.9-9.29-16.33-13.46-24.49-7.54-14.74-14.66-28.66-25.39-39.79-18.57-19.26-43.3-17.72-69.14-14.22-9.81,1.33-20.92,2.83-29.03,8.32-5.48,3.71-9.3,10.18-9.3,15.74,0,3.67-2.65,6.8-6.27,7.41-3.61.6-7.15-1.5-8.33-4.98-2.58-7.57-9.73-14.04-18.66-16.86-8.05-2.55-15.96-1.62-21.69,2.55-3.26,2.37-7.81,1.74-10.31-1.43-8.66-11.02-7.13-25.81-5.22-35.98l.64-3.34c1.68-8.6,3.26-16.71.87-23.56-1.19-3.41-4.61-6.65-8.14-7.7-1.92-.57-3.49-.4-4.67.5-2.55,1.96-6.06,2.09-8.74.31-2.68-1.78-3.92-5.07-3.09-8.18,3.63-13.61,8.94-26.58,15.84-38.74-4.13,2.18-8.7,5.64-14.03,9.85-11.79,9.31-25.14,19.87-40.91,13.46-6.76-2.75-11.71-8.07-14.33-15.37-3.75-10.44-2.28-24.4,3.75-35.57,11.43-21.19,33.33-36.47,57.17-39.86,18.73-2.66,37.46,1.72,53.99,5.58,6.55,1.53,28.6,7.66,37.59,22.29,1.87,3.03,3.05,6.26,3.54,9.58l1.6-.05c.66-23.5,2.58-51.06,16.83-73.51,15.54-24.5,41.49-37.24,66.58-49.55,18.84-9.25,38.33-18.82,52.45-33.18,2.89-2.94,5.6-6.11,8.46-9.46,5.74-6.71,11.67-13.65,19.45-18.99,12.89-8.85,33.06-11.57,45.04.82,2.81,2.91,4.74,6.23,6.44,9.16,1.53,2.64,2.98,5.14,4.73,6.71,2.71,2.44,6.16,2.7,10.26.79,7.5-3.51,13.37-12.6,13.08-20.25-.44-11.53-6.7-22.17-13.32-33.44-2.71-4.61-5.51-9.38-7.95-14.29-3.18-6.42-5.7-13.07-8.13-19.5-3.16-8.34-6.14-16.21-10.37-23.39-5.96-10.1-17.62-21.43-30.74-20.21-12.25,1.15-21.39,12.11-31.05,23.71-2.16,2.59-4.3,5.16-6.47,7.61-17.37,19.61-39.04,28.83-57.93,24.67-13.04-2.87-24.06-14.27-27.42-28.38-2.7-11.37.53-22.12,8.67-28.75,8.56-6.98,19.24-7.64,28.66-8.22,3.52-.22,6.85-.42,9.96-.92,18.82-3,32.94-17.39,47.9-32.63,9.59-9.77,19.51-19.87,31.17-27.41,10.44-6.75,26.19-10.97,36.21-.65,8,8.24,6.21,19.3,4.77,28.2-1.03,6.38-2.01,12.41.45,15.72,3.45,4.63,13.39,3.06,21.11.92,9.4-2.6,17.57-5.21,22.21-10.85,3.85-4.67,4.04-10.3,3.52-14.2-1.06-8-6.06-16.23-12.73-20.98-13.12-9.33-31.06-10.62-46.88-11.75-2.89-.21-5.41-2.06-6.46-4.76-1.05-2.7-.45-5.77,1.54-7.87,1.87-1.98,3.6-4.13,5.12-6.35-213.65,72.76-367.19,260.81-395.32,484.96,18.36-2.19,37.83-.07,53.09,22.22,3.62,5.29,6.64,10.88,9.57,16.28,4.15,7.69,8.08,14.95,13.42,20.96,11.62,13.08,29.28,19.57,47.88,25.59l.55.18c12.01,3.89,24.44,7.91,34.55,16.73,25.76,22.45,8.43,42.78-4.22,57.63-12.39,14.54-19.57,24.05-11.63,36.02,2.33,3.52,6.56,6.26,11.03,9.16,6.36,4.13,13.58,8.81,17.19,17.13,2.63,6.06,2.51,12.27,2.4,17.75-.06,2.98-.11,5.8.26,8.31h0Z"/>
    </g>
    <g>
      <path class="st1" d="M796.9,259.6c14.05-8.75,17.46-30.11,32.8-36.32,10.8-4.37,24.51.38,33.86-6.55,13.58-10.07,5.12-34,16.35-46.64,1.1-1.23,2.37-2.34,3.72-3.38-42.97-9.8-87.69-15-133.63-15-40.59,0-80.23,4.06-118.55,11.77-3.33,15.29,6.08,27.7,38.57,27.7,6.19.73,13.24,1.09,17.22,5.88,4.6,5.53,2.56,13.78.28,20.6-3.82,11.45-7.64,22.91-11.46,34.36-3.74,11.2-7.52,22.99-5.43,34.61,2.09,11.62,12.25,22.71,23.99,21.45,7.91-.85,14.17-6.74,20.27-11.85,17.95-15.05,39.62-25.64,62.52-30.55,6.69-1.43,13.68-2.46,19.48-6.08Z"/>
      <path d="M692.73,315.69c-15.2,0-26.98-13.89-29.47-27.72-2.48-13.78,2.06-27.38,5.7-38.31l11.46-34.36c1.5-4.51,3.25-10.81,1.07-13.43-1.69-2.04-6.22-2.54-10.6-3.03l-1.29-.15c-19.85-.07-33.57-4.64-40.78-13.6-5.02-6.23-6.64-14.25-4.69-23.2.63-2.91,2.93-5.17,5.85-5.76,83.82-16.85,172.12-15.71,255.32,3.27,2.84.65,5.04,2.87,5.66,5.71.62,2.84-.46,5.78-2.76,7.55-1.14.87-2.01,1.66-2.67,2.41-3.69,4.16-4.46,11.15-5.27,18.55-1.12,10.24-2.4,21.85-12.22,29.13-7.15,5.3-15.49,5.56-22.85,5.79-4.72.15-9.18.29-12.67,1.69-5.97,2.41-9.83,8.61-14.31,15.79-4.38,7.01-9.34,14.96-17.33,19.94h0c-6.14,3.82-13.03,5.23-19.12,6.47l-2.76.57c-21.74,4.66-42.24,14.67-59.27,28.96l-1.63,1.38c-6.18,5.24-13.17,11.17-22.66,12.19-.91.1-1.81.15-2.7.15ZM638.34,169.78c.12,2.31.84,4.27,2.16,5.9,4.16,5.16,14.65,8.01,29.53,8.01.29,0,.59.02.88.05l1.64.19c6.64.74,14.91,1.66,20.47,8.34,7.77,9.34,3.47,22.26,1.63,27.77l-11.46,34.36c-3.26,9.79-6.97,20.89-5.16,30.91,1.42,7.9,8.2,16.14,15.81,15.32,4.9-.53,9.59-4.5,14.56-8.71l1.69-1.43c18.91-15.85,41.65-26.96,65.77-32.13l2.9-.6c5.32-1.09,10.34-2.11,14.19-4.51,5.04-3.14,8.68-8.97,12.54-15.15,5.12-8.21,10.93-17.51,21.42-21.75,5.97-2.41,12.27-2.61,17.82-2.78,5.91-.18,11.01-.34,14.38-2.84,4.56-3.38,5.34-10.49,6.24-18.72.73-6.68,1.54-14.03,4.74-20.54-75.81-15.64-155.59-16.23-231.74-1.67ZM796.9,259.6h.03-.03Z"/>
    </g>
    <g>
      <path class="st1" d="M889.54,248.1c-.29-.02-.57-.04-.86-.05-3.37-.13-6.6.56-9.98.51-4.16-.06-8.32-.13-12.48-.19-8.32-.13-16.64-.26-24.96-.38-2.39-.04-4.86-.06-7.04.89-3.05,1.33-5.02,4.29-6.69,7.17-4.32,7.46-7.8,15.4-10.37,23.63,17.29-1.66,34.58-3.33,51.86-4.99,6.5-.63,13.2-1.31,18.9-4.48,5.94-3.3,15.02-16.67,5.25-21.28-1.13-.53-2.39-.73-3.64-.83Z"/>
      <path d="M817.17,287.18c-2.25,0-4.39-1.01-5.82-2.77-1.58-1.95-2.09-4.56-1.34-6.96,2.73-8.75,6.44-17.21,11.04-25.16,1.47-2.55,4.54-7.84,10.19-10.3,3.71-1.61,7.44-1.56,10.15-1.51l37.44.58c1.24,0,2.54-.1,3.95-.23,1.85-.17,3.96-.35,6.2-.27.4.02.79.04,1.18.07,0,0,0,0,.01,0,1.69.14,3.92.44,6.21,1.52,5.29,2.49,8.42,7.12,8.61,12.71.31,9.26-7.59,18.68-13.41,21.91-7.16,3.98-15.29,4.76-21.83,5.39l-51.86,4.99c-.24.02-.48.04-.72.04ZM840.01,255.47c-1.11,0-2.25.05-2.8.28-1.12.49-2.68,3.17-3.19,4.05-2.11,3.64-4,7.41-5.67,11.27l39.96-3.85c5.68-.55,11.55-1.11,15.98-3.57,2.48-1.38,5.48-5.91,5.7-7.94h0s-.28-.08-1.05-.14l-.55-.03c-1.27-.05-2.72.08-4.25.22-1.66.15-3.53.32-5.54.29l-37.44-.58c-.35,0-.74-.01-1.13-.01Z"/>
    </g>
  </g>
</svg>

